<mxfile host="Electron" modified="2024-05-24T07:03:56.645Z" agent="Mozilla/5.0 (Macintosh; Intel Mac OS X 10_15_7) AppleWebKit/537.36 (KHTML, like Gecko) draw.io/24.2.5 Chrome/120.0.6099.109 Electron/28.1.0 Safari/537.36" etag="fyF6U-HAWylVaV6gTbIQ" version="24.2.5" type="device">
  <diagram name="Page-1" id="0IaJkFtwDbDyyTs9hpwX">
    <mxGraphModel dx="1026" dy="694" grid="1" gridSize="10" guides="1" tooltips="1" connect="1" arrows="1" fold="1" page="1" pageScale="1" pageWidth="827" pageHeight="1169" math="0" shadow="0">
      <root>
        <mxCell id="0" />
        <mxCell id="1" parent="0" />
        <mxCell id="KkQzS-VH_zntUxfcrALL-44" value="" style="rounded=0;whiteSpace=wrap;html=1;strokeColor=#36393d;fillColor=#eeeeee;" vertex="1" parent="1">
          <mxGeometry x="270" y="360" width="110" height="120" as="geometry" />
        </mxCell>
        <mxCell id="KkQzS-VH_zntUxfcrALL-43" value="" style="rounded=0;whiteSpace=wrap;html=1;strokeColor=#6c8ebf;fillColor=#dae8fc;" vertex="1" parent="1">
          <mxGeometry x="287.5" y="230" width="50" height="120" as="geometry" />
        </mxCell>
        <mxCell id="KkQzS-VH_zntUxfcrALL-42" value="" style="rounded=0;whiteSpace=wrap;html=1;strokeColor=#6c8ebf;fillColor=#dae8fc;" vertex="1" parent="1">
          <mxGeometry x="200" y="230" width="70" height="120" as="geometry" />
        </mxCell>
        <mxCell id="dMzlSlOISvEDsEY7bGCE-1" value="ingest" style="rounded=0;whiteSpace=wrap;html=1;" parent="1" vertex="1">
          <mxGeometry x="20" y="280" width="120" height="60" as="geometry" />
        </mxCell>
        <mxCell id="dMzlSlOISvEDsEY7bGCE-49" style="edgeStyle=orthogonalEdgeStyle;rounded=0;orthogonalLoop=1;jettySize=auto;html=1;exitX=0.5;exitY=1;exitDx=0;exitDy=0;exitPerimeter=0;" parent="1" source="dMzlSlOISvEDsEY7bGCE-2" target="dMzlSlOISvEDsEY7bGCE-48" edge="1">
          <mxGeometry relative="1" as="geometry" />
        </mxCell>
        <mxCell id="dMzlSlOISvEDsEY7bGCE-2" value="parent vector DB&lt;div&gt;&lt;br&gt;&lt;/div&gt;" style="shape=cylinder3;whiteSpace=wrap;html=1;boundedLbl=1;backgroundOutline=1;size=15;fillColor=#d5e8d4;strokeColor=#82b366;" parent="1" vertex="1">
          <mxGeometry x="230" y="570" width="90" height="60" as="geometry" />
        </mxCell>
        <mxCell id="dMzlSlOISvEDsEY7bGCE-50" style="edgeStyle=orthogonalEdgeStyle;rounded=0;orthogonalLoop=1;jettySize=auto;html=1;exitX=0.855;exitY=1;exitDx=0;exitDy=-4.35;exitPerimeter=0;entryX=0.75;entryY=0;entryDx=0;entryDy=0;" parent="1" source="dMzlSlOISvEDsEY7bGCE-3" target="dMzlSlOISvEDsEY7bGCE-48" edge="1">
          <mxGeometry relative="1" as="geometry" />
        </mxCell>
        <mxCell id="dMzlSlOISvEDsEY7bGCE-3" value="cluster vector DB" style="shape=cylinder3;whiteSpace=wrap;html=1;boundedLbl=1;backgroundOutline=1;size=15;fillColor=#d5e8d4;strokeColor=#82b366;" parent="1" vertex="1">
          <mxGeometry x="230" y="650" width="90" height="60" as="geometry" />
        </mxCell>
        <mxCell id="dMzlSlOISvEDsEY7bGCE-5" value="child vector storage" style="shape=cylinder3;whiteSpace=wrap;html=1;boundedLbl=1;backgroundOutline=1;size=15;fillColor=#fff2cc;strokeColor=#d6b656;" parent="1" vertex="1">
          <mxGeometry x="230" y="730" width="90" height="60" as="geometry" />
        </mxCell>
        <mxCell id="dMzlSlOISvEDsEY7bGCE-6" value="qdrant" style="text;html=1;align=center;verticalAlign=middle;resizable=0;points=[];autosize=1;strokeColor=none;fillColor=none;" parent="1" vertex="1">
          <mxGeometry x="140" y="578" width="60" height="30" as="geometry" />
        </mxCell>
        <mxCell id="dMzlSlOISvEDsEY7bGCE-7" value="pg" style="text;html=1;align=center;verticalAlign=middle;resizable=0;points=[];autosize=1;strokeColor=none;fillColor=none;" parent="1" vertex="1">
          <mxGeometry x="150" y="730" width="40" height="30" as="geometry" />
        </mxCell>
        <mxCell id="KkQzS-VH_zntUxfcrALL-4" style="edgeStyle=orthogonalEdgeStyle;rounded=0;orthogonalLoop=1;jettySize=auto;html=1;exitX=0.75;exitY=1;exitDx=0;exitDy=0;" edge="1" parent="1" source="dMzlSlOISvEDsEY7bGCE-9">
          <mxGeometry relative="1" as="geometry">
            <mxPoint x="230" y="240" as="targetPoint" />
          </mxGeometry>
        </mxCell>
        <mxCell id="KkQzS-VH_zntUxfcrALL-7" style="edgeStyle=orthogonalEdgeStyle;rounded=0;orthogonalLoop=1;jettySize=auto;html=1;exitX=1;exitY=0.5;exitDx=0;exitDy=0;entryX=0;entryY=0.5;entryDx=0;entryDy=0;shape=link;" edge="1" parent="1" source="dMzlSlOISvEDsEY7bGCE-9" target="dMzlSlOISvEDsEY7bGCE-10">
          <mxGeometry relative="1" as="geometry" />
        </mxCell>
        <mxCell id="dMzlSlOISvEDsEY7bGCE-9" value="title/abstract" style="rounded=1;whiteSpace=wrap;html=1;" parent="1" vertex="1">
          <mxGeometry x="140" y="150" width="120" height="20" as="geometry" />
        </mxCell>
        <mxCell id="dMzlSlOISvEDsEY7bGCE-10" value="full text" style="rounded=1;whiteSpace=wrap;html=1;" parent="1" vertex="1">
          <mxGeometry x="305" y="150" width="120" height="20" as="geometry" />
        </mxCell>
        <mxCell id="dMzlSlOISvEDsEY7bGCE-11" value="filter by year / percentile / criteria" style="text;html=1;align=center;verticalAlign=middle;resizable=0;points=[];autosize=1;strokeColor=none;fillColor=none;fontStyle=2" parent="1" vertex="1">
          <mxGeometry x="105" y="110" width="200" height="30" as="geometry" />
        </mxCell>
        <mxCell id="dMzlSlOISvEDsEY7bGCE-12" value="ch 1" style="rounded=1;whiteSpace=wrap;html=1;" parent="1" vertex="1">
          <mxGeometry x="292.5" y="240" width="40" height="20" as="geometry" />
        </mxCell>
        <mxCell id="dMzlSlOISvEDsEY7bGCE-13" value="ch 2" style="rounded=1;whiteSpace=wrap;html=1;" parent="1" vertex="1">
          <mxGeometry x="346.5" y="240" width="40" height="20" as="geometry" />
        </mxCell>
        <mxCell id="dMzlSlOISvEDsEY7bGCE-14" value="..." style="rounded=1;whiteSpace=wrap;html=1;" parent="1" vertex="1">
          <mxGeometry x="392.5" y="240" width="40" height="20" as="geometry" />
        </mxCell>
        <mxCell id="dMzlSlOISvEDsEY7bGCE-19" value="ch n" style="rounded=1;whiteSpace=wrap;html=1;" parent="1" vertex="1">
          <mxGeometry x="442.5" y="240" width="40" height="20" as="geometry" />
        </mxCell>
        <mxCell id="dMzlSlOISvEDsEY7bGCE-23" value="analysis" style="text;html=1;align=center;verticalAlign=middle;resizable=0;points=[];autosize=1;strokeColor=none;fillColor=none;" parent="1" vertex="1">
          <mxGeometry x="530" y="248" width="70" height="30" as="geometry" />
        </mxCell>
        <mxCell id="dMzlSlOISvEDsEY7bGCE-24" value="clustering" style="text;html=1;align=center;verticalAlign=middle;resizable=0;points=[];autosize=1;strokeColor=none;fillColor=none;" parent="1" vertex="1">
          <mxGeometry x="530" y="370" width="70" height="30" as="geometry" />
        </mxCell>
        <mxCell id="dMzlSlOISvEDsEY7bGCE-25" value="embedding" style="text;html=1;align=center;verticalAlign=middle;resizable=0;points=[];autosize=1;strokeColor=none;fillColor=none;" parent="1" vertex="1">
          <mxGeometry x="530" y="300" width="80" height="30" as="geometry" />
        </mxCell>
        <mxCell id="dMzlSlOISvEDsEY7bGCE-27" value="centroid computation" style="text;html=1;align=center;verticalAlign=middle;resizable=0;points=[];autosize=1;strokeColor=none;fillColor=none;" parent="1" vertex="1">
          <mxGeometry x="530" y="450" width="130" height="30" as="geometry" />
        </mxCell>
        <mxCell id="dMzlSlOISvEDsEY7bGCE-41" value="per record:&lt;br style=&quot;font-size: 9px;&quot;&gt;&lt;ul style=&quot;font-size: 9px;&quot;&gt;&lt;li style=&quot;font-size: 9px;&quot;&gt;id&lt;/li&gt;&lt;li style=&quot;font-size: 9px;&quot;&gt;dense vector&lt;/li&gt;&lt;li style=&quot;font-size: 9px;&quot;&gt;sparse vector&lt;/li&gt;&lt;li style=&quot;font-size: 9px;&quot;&gt;node text (title+abstract)&lt;/li&gt;&lt;li style=&quot;font-size: 9px;&quot;&gt;record metadata (author, year, source, ...)&lt;/li&gt;&lt;/ul&gt;" style="text;html=1;align=left;verticalAlign=middle;resizable=0;points=[];autosize=1;strokeColor=none;fillColor=none;fontSize=9;" parent="1" vertex="1">
          <mxGeometry x="414" y="542.5" width="230" height="100" as="geometry" />
        </mxCell>
        <mxCell id="dMzlSlOISvEDsEY7bGCE-42" value="per record:&lt;br style=&quot;font-size: 9px;&quot;&gt;&lt;ul style=&quot;font-size: 9px;&quot;&gt;&lt;li style=&quot;font-size: 9px;&quot;&gt;id&lt;/li&gt;&lt;li style=&quot;font-size: 9px;&quot;&gt;dense vector&lt;/li&gt;&lt;li style=&quot;font-size: 9px;&quot;&gt;sparse vector&lt;/li&gt;&lt;li style=&quot;font-size: 9px;&quot;&gt;list of child IDs&lt;/li&gt;&lt;/ul&gt;" style="text;html=1;align=left;verticalAlign=middle;resizable=0;points=[];autosize=1;strokeColor=none;fillColor=none;fontSize=9;" parent="1" vertex="1">
          <mxGeometry x="414" y="632.5" width="120" height="90" as="geometry" />
        </mxCell>
        <mxCell id="dMzlSlOISvEDsEY7bGCE-43" value="per record:&lt;br style=&quot;font-size: 9px;&quot;&gt;&lt;ul style=&quot;font-size: 9px;&quot;&gt;&lt;li style=&quot;font-size: 9px;&quot;&gt;id&lt;/li&gt;&lt;li style=&quot;font-size: 9px;&quot;&gt;parent id&lt;/li&gt;&lt;li style=&quot;font-size: 9px;&quot;&gt;dense vector&lt;/li&gt;&lt;li style=&quot;font-size: 9px;&quot;&gt;sparse vector&lt;/li&gt;&lt;li style=&quot;font-size: 9px;&quot;&gt;node text (full-text section)&lt;/li&gt;&lt;/ul&gt;" style="text;html=1;align=left;verticalAlign=middle;resizable=0;points=[];autosize=1;strokeColor=none;fillColor=none;fontSize=9;" parent="1" vertex="1">
          <mxGeometry x="414" y="717.5" width="170" height="100" as="geometry" />
        </mxCell>
        <mxCell id="dMzlSlOISvEDsEY7bGCE-44" value="additional metadata can be left out&lt;div style=&quot;font-size: 8px;&quot;&gt;because that is retrieved from the parent DB&lt;/div&gt;" style="text;html=1;align=left;verticalAlign=middle;resizable=0;points=[];autosize=1;strokeColor=none;fillColor=none;fontSize=8;" parent="1" vertex="1">
          <mxGeometry x="624" y="737.5" width="180" height="30" as="geometry" />
        </mxCell>
        <mxCell id="dMzlSlOISvEDsEY7bGCE-46" value="query" style="ellipse;whiteSpace=wrap;html=1;" parent="1" vertex="1">
          <mxGeometry x="100" y="850" width="70" height="50" as="geometry" />
        </mxCell>
        <mxCell id="dMzlSlOISvEDsEY7bGCE-47" value="embedding / sparse + dense" style="text;html=1;align=center;verticalAlign=middle;resizable=0;points=[];autosize=1;strokeColor=none;fillColor=none;" parent="1" vertex="1">
          <mxGeometry x="50" y="930" width="180" height="30" as="geometry" />
        </mxCell>
        <mxCell id="dMzlSlOISvEDsEY7bGCE-48" value="search" style="shape=process;whiteSpace=wrap;html=1;backgroundOutline=1;" parent="1" vertex="1">
          <mxGeometry x="230" y="910" width="120" height="60" as="geometry" />
        </mxCell>
        <mxCell id="dMzlSlOISvEDsEY7bGCE-51" value="list of p1 p2 .. pn [parent IDs]" style="rounded=0;whiteSpace=wrap;html=1;" parent="1" vertex="1">
          <mxGeometry x="380" y="910" width="120" height="30" as="geometry" />
        </mxCell>
        <mxCell id="dMzlSlOISvEDsEY7bGCE-52" value="list of cl1 cl2 .. cln [cluster IDs]" style="rounded=0;whiteSpace=wrap;html=1;" parent="1" vertex="1">
          <mxGeometry x="380" y="950" width="120" height="30" as="geometry" />
        </mxCell>
        <mxCell id="dMzlSlOISvEDsEY7bGCE-53" value="" style="shape=curlyBracket;whiteSpace=wrap;html=1;rounded=1;flipH=1;labelPosition=right;verticalLabelPosition=middle;align=left;verticalAlign=middle;" parent="1" vertex="1">
          <mxGeometry x="500" y="900" width="50" height="100" as="geometry" />
        </mxCell>
        <mxCell id="dMzlSlOISvEDsEY7bGCE-54" value="rank by score, multiply&amp;nbsp;&lt;div&gt;by weights attributed&lt;br&gt;&amp;nbsp;to parents/clusters&amp;nbsp;&lt;/div&gt;&lt;div&gt;(empirically)&lt;/div&gt;" style="text;html=1;align=left;verticalAlign=middle;resizable=0;points=[];autosize=1;strokeColor=none;fillColor=none;" parent="1" vertex="1">
          <mxGeometry x="550" y="920" width="150" height="70" as="geometry" />
        </mxCell>
        <mxCell id="dMzlSlOISvEDsEY7bGCE-56" value="&lt;ol style=&quot;forced-color-adjust: none; color: rgb(0, 0, 0); font-family: Helvetica; font-size: 12px; font-style: normal; font-variant-ligatures: normal; font-variant-caps: normal; font-weight: 400; letter-spacing: normal; orphans: 2; text-indent: 0px; text-transform: none; widows: 2; word-spacing: 0px; -webkit-text-stroke-width: 0px; white-space: normal; background-color: rgb(251, 251, 251); text-decoration-thickness: initial; text-decoration-style: initial; text-decoration-color: initial;&quot;&gt;&lt;li style=&quot;forced-color-adjust: none;&quot;&gt;p 1&lt;/li&gt;&lt;li style=&quot;forced-color-adjust: none;&quot;&gt;cl 1&lt;/li&gt;&lt;li style=&quot;forced-color-adjust: none;&quot;&gt;cl 2&lt;/li&gt;&lt;li style=&quot;forced-color-adjust: none;&quot;&gt;p2&lt;/li&gt;&lt;li style=&quot;forced-color-adjust: none;&quot;&gt;p3&lt;/li&gt;&lt;/ol&gt;" style="rounded=0;whiteSpace=wrap;html=1;align=left;" parent="1" vertex="1">
          <mxGeometry x="95" y="1052" width="95" height="78" as="geometry" />
        </mxCell>
        <mxCell id="dMzlSlOISvEDsEY7bGCE-57" value="sorted result list" style="text;html=1;align=center;verticalAlign=middle;resizable=0;points=[];autosize=1;strokeColor=none;fillColor=none;" parent="1" vertex="1">
          <mxGeometry x="60" y="1020" width="110" height="30" as="geometry" />
        </mxCell>
        <mxCell id="dMzlSlOISvEDsEY7bGCE-58" value="expand / blow up" style="text;html=1;align=center;verticalAlign=middle;resizable=0;points=[];autosize=1;strokeColor=none;fillColor=none;" parent="1" vertex="1">
          <mxGeometry x="195" y="1090" width="110" height="30" as="geometry" />
        </mxCell>
        <mxCell id="dMzlSlOISvEDsEY7bGCE-59" value="&lt;ol style=&quot;forced-color-adjust: none; color: rgb(0, 0, 0); font-family: Helvetica; font-size: 12px; font-style: normal; font-variant-ligatures: normal; font-variant-caps: normal; font-weight: 400; letter-spacing: normal; orphans: 2; text-indent: 0px; text-transform: none; widows: 2; word-spacing: 0px; -webkit-text-stroke-width: 0px; white-space: normal; background-color: rgb(251, 251, 251); text-decoration-thickness: initial; text-decoration-style: initial; text-decoration-color: initial;&quot;&gt;&lt;li style=&quot;forced-color-adjust: none;&quot;&gt;p 1&lt;/li&gt;&lt;li style=&quot;forced-color-adjust: none;&quot;&gt;ch 1 (cl 1)&lt;/li&gt;&lt;li style=&quot;forced-color-adjust: none;&quot;&gt;ch 2 (cl 1)&lt;br&gt;&lt;/li&gt;&lt;li style=&quot;forced-color-adjust: none;&quot;&gt;ch 4 (cl 1)&lt;/li&gt;&lt;li style=&quot;forced-color-adjust: none;&quot;&gt;ch 8 (cl 2)&lt;/li&gt;&lt;li style=&quot;forced-color-adjust: none;&quot;&gt;ch 9 (cl 2)&lt;/li&gt;&lt;li style=&quot;forced-color-adjust: none;&quot;&gt;p2&lt;/li&gt;&lt;li style=&quot;forced-color-adjust: none;&quot;&gt;p3&lt;/li&gt;&lt;/ol&gt;" style="rounded=0;whiteSpace=wrap;html=1;align=left;" parent="1" vertex="1">
          <mxGeometry x="320" y="1052" width="110" height="120" as="geometry" />
        </mxCell>
        <mxCell id="dMzlSlOISvEDsEY7bGCE-60" value="extended result list" style="text;html=1;align=center;verticalAlign=middle;resizable=0;points=[];autosize=1;strokeColor=none;fillColor=none;" parent="1" vertex="1">
          <mxGeometry x="285" y="1020" width="120" height="30" as="geometry" />
        </mxCell>
        <mxCell id="dMzlSlOISvEDsEY7bGCE-61" value="&lt;div&gt;&lt;/div&gt;" style="text;html=1;align=center;verticalAlign=middle;resizable=0;points=[];autosize=1;strokeColor=none;fillColor=none;" parent="1" vertex="1">
          <mxGeometry x="495" y="1100" width="20" height="10" as="geometry" />
        </mxCell>
        <mxCell id="dMzlSlOISvEDsEY7bGCE-62" value="&lt;ol style=&quot;forced-color-adjust: none; color: rgb(0, 0, 0); font-family: Helvetica; font-size: 12px; font-style: normal; font-variant-ligatures: normal; font-variant-caps: normal; font-weight: 400; letter-spacing: normal; orphans: 2; text-indent: 0px; text-transform: none; widows: 2; word-spacing: 0px; -webkit-text-stroke-width: 0px; white-space: normal; background-color: rgb(251, 251, 251); text-decoration-thickness: initial; text-decoration-style: initial; text-decoration-color: initial;&quot;&gt;&lt;li&gt;ch 4 (cl 1)&lt;/li&gt;&lt;li&gt;ch 2 (cl 1)&lt;br&gt;&lt;/li&gt;&lt;li style=&quot;forced-color-adjust: none;&quot;&gt;p 1&lt;/li&gt;&lt;li style=&quot;forced-color-adjust: none;&quot;&gt;ch 1 (cl 1)&lt;/li&gt;&lt;li style=&quot;forced-color-adjust: none;&quot;&gt;ch 8 (cl 2)&lt;br&gt;&lt;/li&gt;&lt;li style=&quot;forced-color-adjust: none;&quot;&gt;p2&lt;br&gt;&lt;/li&gt;&lt;li&gt;ch 9 (cl 2)&lt;/li&gt;&lt;li style=&quot;forced-color-adjust: none;&quot;&gt;p3&lt;/li&gt;&lt;/ol&gt;" style="rounded=0;whiteSpace=wrap;html=1;align=left;" parent="1" vertex="1">
          <mxGeometry x="580" y="1052" width="110" height="120" as="geometry" />
        </mxCell>
        <mxCell id="dMzlSlOISvEDsEY7bGCE-63" value="&lt;ol style=&quot;forced-color-adjust: none; color: rgb(0, 0, 0); font-family: Helvetica; font-size: 12px; font-style: normal; font-variant-ligatures: normal; font-variant-caps: normal; font-weight: 400; letter-spacing: normal; orphans: 2; text-indent: 0px; text-transform: none; widows: 2; word-spacing: 0px; -webkit-text-stroke-width: 0px; white-space: normal; background-color: rgb(251, 251, 251); text-decoration-thickness: initial; text-decoration-style: initial; text-decoration-color: initial;&quot;&gt;&lt;li&gt;ch 4 (cl 1)&lt;/li&gt;&lt;li&gt;ch 2 (cl 1)&lt;br&gt;&lt;/li&gt;&lt;li style=&quot;forced-color-adjust: none;&quot;&gt;p 1&lt;/li&gt;&lt;/ol&gt;" style="rounded=0;whiteSpace=wrap;html=1;align=left;" parent="1" vertex="1">
          <mxGeometry x="95" y="1200" width="105" height="50" as="geometry" />
        </mxCell>
        <mxCell id="dMzlSlOISvEDsEY7bGCE-64" value="select top &lt;i&gt;n&lt;/i&gt;" style="text;html=1;align=center;verticalAlign=middle;resizable=0;points=[];autosize=1;strokeColor=none;fillColor=none;" parent="1" vertex="1">
          <mxGeometry x="70" y="1169" width="80" height="30" as="geometry" />
        </mxCell>
        <mxCell id="dMzlSlOISvEDsEY7bGCE-65" value="summarizer" style="text;html=1;align=center;verticalAlign=middle;resizable=0;points=[];autosize=1;strokeColor=none;fillColor=none;" parent="1" vertex="1">
          <mxGeometry x="260" y="1172" width="90" height="30" as="geometry" />
        </mxCell>
        <mxCell id="dMzlSlOISvEDsEY7bGCE-66" value="&lt;meta charset=&quot;utf-8&quot;&gt;&lt;div style=&quot;forced-color-adjust: none; color: rgb(0, 0, 0); font-family: Helvetica; font-size: 12px; font-style: normal; font-variant-ligatures: normal; font-variant-caps: normal; font-weight: 400; letter-spacing: normal; orphans: 2; text-align: center; text-indent: 0px; text-transform: none; widows: 2; word-spacing: 0px; -webkit-text-stroke-width: 0px; white-space: nowrap; background-color: rgb(251, 251, 251); text-decoration-thickness: initial; text-decoration-style: initial; text-decoration-color: initial;&quot;&gt;re-rank ==&amp;gt;&lt;/div&gt;&lt;span style=&quot;color: rgb(0, 0, 0); font-family: Helvetica; font-size: 12px; font-style: normal; font-variant-ligatures: normal; font-variant-caps: normal; font-weight: 400; letter-spacing: normal; orphans: 2; text-align: center; text-indent: 0px; text-transform: none; widows: 2; word-spacing: 0px; -webkit-text-stroke-width: 0px; white-space: nowrap; background-color: rgb(251, 251, 251); text-decoration-thickness: initial; text-decoration-style: initial; text-decoration-color: initial; display: inline !important; float: none;&quot;&gt;sort by cosine distance&lt;/span&gt;&lt;br style=&quot;forced-color-adjust: none; color: rgb(0, 0, 0); font-family: Helvetica; font-size: 12px; font-style: normal; font-variant-ligatures: normal; font-variant-caps: normal; font-weight: 400; letter-spacing: normal; orphans: 2; text-align: center; text-indent: 0px; text-transform: none; widows: 2; word-spacing: 0px; -webkit-text-stroke-width: 0px; white-space: nowrap; background-color: rgb(251, 251, 251); text-decoration-thickness: initial; text-decoration-style: initial; text-decoration-color: initial;&quot;&gt;&lt;span style=&quot;color: rgb(0, 0, 0); font-family: Helvetica; font-size: 12px; font-style: normal; font-variant-ligatures: normal; font-variant-caps: normal; font-weight: 400; letter-spacing: normal; orphans: 2; text-align: center; text-indent: 0px; text-transform: none; widows: 2; word-spacing: 0px; -webkit-text-stroke-width: 0px; white-space: nowrap; background-color: rgb(251, 251, 251); text-decoration-thickness: initial; text-decoration-style: initial; text-decoration-color: initial; display: inline !important; float: none;&quot;&gt;&amp;nbsp;from query vector&lt;/span&gt;" style="rounded=1;whiteSpace=wrap;html=1;fillColor=#fad7ac;strokeColor=#b46504;" parent="1" vertex="1">
          <mxGeometry x="470" y="1052" width="80" height="52" as="geometry" />
        </mxCell>
        <mxCell id="dMzlSlOISvEDsEY7bGCE-67" value="&lt;div style=&quot;forced-color-adjust: none; color: rgb(0, 0, 0); font-family: Helvetica; font-size: 12px; font-style: normal; font-variant-ligatures: normal; font-variant-caps: normal; font-weight: 400; letter-spacing: normal; orphans: 2; text-align: center; text-indent: 0px; text-transform: none; widows: 2; word-spacing: 0px; -webkit-text-stroke-width: 0px; white-space: nowrap; background-color: rgb(251, 251, 251); text-decoration-thickness: initial; text-decoration-style: initial; text-decoration-color: initial;&quot;&gt;re-rank ==&amp;gt;&lt;/div&gt;&lt;span style=&quot;color: rgb(0, 0, 0); font-family: Helvetica; font-size: 12px; font-style: normal; font-variant-ligatures: normal; font-variant-caps: normal; font-weight: 400; letter-spacing: normal; orphans: 2; text-align: center; text-indent: 0px; text-transform: none; widows: 2; word-spacing: 0px; -webkit-text-stroke-width: 0px; white-space: nowrap; background-color: rgb(251, 251, 251); text-decoration-thickness: initial; text-decoration-style: initial; text-decoration-color: initial; display: inline !important; float: none;&quot;&gt;LLM reranker&lt;/span&gt;" style="rounded=1;whiteSpace=wrap;html=1;fillColor=#fad9d5;strokeColor=#ae4132;" parent="1" vertex="1">
          <mxGeometry x="470" y="1110" width="80" height="52" as="geometry" />
        </mxCell>
        <mxCell id="KkQzS-VH_zntUxfcrALL-2" style="edgeStyle=orthogonalEdgeStyle;rounded=0;orthogonalLoop=1;jettySize=auto;html=1;exitX=0.5;exitY=1;exitDx=0;exitDy=0;exitPerimeter=0;" edge="1" parent="1" source="KkQzS-VH_zntUxfcrALL-1" target="dMzlSlOISvEDsEY7bGCE-9">
          <mxGeometry relative="1" as="geometry" />
        </mxCell>
        <mxCell id="KkQzS-VH_zntUxfcrALL-1" value="pubmed&lt;div&gt;pubmedcentral&amp;nbsp;&lt;/div&gt;" style="shape=cylinder3;whiteSpace=wrap;html=1;boundedLbl=1;backgroundOutline=1;size=15;" vertex="1" parent="1">
          <mxGeometry x="140" y="30" width="120" height="80" as="geometry" />
        </mxCell>
        <mxCell id="KkQzS-VH_zntUxfcrALL-5" value="parent" style="rounded=1;whiteSpace=wrap;html=1;" vertex="1" parent="1">
          <mxGeometry x="210" y="240" width="50" height="20" as="geometry" />
        </mxCell>
        <mxCell id="KkQzS-VH_zntUxfcrALL-10" style="edgeStyle=orthogonalEdgeStyle;rounded=0;orthogonalLoop=1;jettySize=auto;html=1;exitX=0.5;exitY=1;exitDx=0;exitDy=0;entryX=0.5;entryY=0;entryDx=0;entryDy=0;" edge="1" parent="1" source="KkQzS-VH_zntUxfcrALL-9" target="dMzlSlOISvEDsEY7bGCE-10">
          <mxGeometry relative="1" as="geometry" />
        </mxCell>
        <mxCell id="KkQzS-VH_zntUxfcrALL-9" value="S3 storage" style="rounded=0;whiteSpace=wrap;html=1;" vertex="1" parent="1">
          <mxGeometry x="305" y="40" width="120" height="30" as="geometry" />
        </mxCell>
        <mxCell id="KkQzS-VH_zntUxfcrALL-11" value="postgres" style="text;html=1;align=center;verticalAlign=middle;resizable=0;points=[];autosize=1;strokeColor=none;fillColor=none;fontStyle=2" vertex="1" parent="1">
          <mxGeometry x="160" y="30" width="70" height="30" as="geometry" />
        </mxCell>
        <mxCell id="KkQzS-VH_zntUxfcrALL-12" style="edgeStyle=orthogonalEdgeStyle;rounded=0;orthogonalLoop=1;jettySize=auto;html=1;exitX=0.5;exitY=1;exitDx=0;exitDy=0;" edge="1" parent="1" source="dMzlSlOISvEDsEY7bGCE-10" target="dMzlSlOISvEDsEY7bGCE-10">
          <mxGeometry relative="1" as="geometry" />
        </mxCell>
        <mxCell id="KkQzS-VH_zntUxfcrALL-13" value="jats parser" style="shape=process;whiteSpace=wrap;html=1;backgroundOutline=1;" vertex="1" parent="1">
          <mxGeometry x="305" y="180" width="115" height="20" as="geometry" />
        </mxCell>
        <mxCell id="KkQzS-VH_zntUxfcrALL-14" value="split into &#39;child&#39; sections" style="text;html=1;align=center;verticalAlign=middle;resizable=0;points=[];autosize=1;strokeColor=none;fillColor=none;" vertex="1" parent="1">
          <mxGeometry x="425" y="175" width="150" height="30" as="geometry" />
        </mxCell>
        <mxCell id="KkQzS-VH_zntUxfcrALL-16" value="" style="verticalLabelPosition=bottom;shadow=0;dashed=0;align=center;html=1;verticalAlign=top;strokeWidth=1;shape=mxgraph.mockup.markup.curlyBrace;whiteSpace=wrap;strokeColor=#999999;" vertex="1" parent="1">
          <mxGeometry x="315" y="205" width="145" height="15" as="geometry" />
        </mxCell>
        <mxCell id="KkQzS-VH_zntUxfcrALL-17" value="dense&lt;br style=&quot;font-size: 10px;&quot;&gt;vector" style="rounded=1;whiteSpace=wrap;html=1;fillColor=#fff2cc;strokeColor=#d6b656;fontSize=10;" vertex="1" parent="1">
          <mxGeometry x="296" y="278" width="33" height="22" as="geometry" />
        </mxCell>
        <mxCell id="KkQzS-VH_zntUxfcrALL-18" value="centroid&lt;br style=&quot;font-size: 10px;&quot;&gt;vector" style="rounded=1;whiteSpace=wrap;html=1;fillColor=#fff2cc;strokeColor=#d6b656;fontSize=10;" vertex="1" parent="1">
          <mxGeometry x="296" y="450" width="33" height="22" as="geometry" />
        </mxCell>
        <mxCell id="KkQzS-VH_zntUxfcrALL-19" value="dense&lt;br style=&quot;font-size: 10px;&quot;&gt;vector" style="rounded=1;whiteSpace=wrap;html=1;fillColor=#fff2cc;strokeColor=#d6b656;fontSize=10;" vertex="1" parent="1">
          <mxGeometry x="399.5" y="280" width="33" height="22" as="geometry" />
        </mxCell>
        <mxCell id="KkQzS-VH_zntUxfcrALL-20" value="dense&lt;br style=&quot;font-size: 10px;&quot;&gt;vector" style="rounded=1;whiteSpace=wrap;html=1;fillColor=#fff2cc;strokeColor=#d6b656;fontSize=10;" vertex="1" parent="1">
          <mxGeometry x="350" y="278" width="33" height="22" as="geometry" />
        </mxCell>
        <mxCell id="KkQzS-VH_zntUxfcrALL-21" value="dense&lt;br style=&quot;font-size: 10px;&quot;&gt;vector" style="rounded=1;whiteSpace=wrap;html=1;fillColor=#fff2cc;strokeColor=#d6b656;fontSize=10;" vertex="1" parent="1">
          <mxGeometry x="218.5" y="278" width="33" height="22" as="geometry" />
        </mxCell>
        <mxCell id="KkQzS-VH_zntUxfcrALL-22" value="centroid&lt;br style=&quot;font-size: 10px;&quot;&gt;vector" style="rounded=1;whiteSpace=wrap;html=1;fillColor=#e1d5e7;strokeColor=#9673a6;fontSize=10;" vertex="1" parent="1">
          <mxGeometry x="335" y="450" width="33" height="22" as="geometry" />
        </mxCell>
        <mxCell id="KkQzS-VH_zntUxfcrALL-23" value="sparse&lt;br style=&quot;font-size: 10px;&quot;&gt;vector" style="rounded=1;whiteSpace=wrap;html=1;fillColor=#e1d5e7;strokeColor=#9673a6;fontSize=10;" vertex="1" parent="1">
          <mxGeometry x="399.5" y="318" width="33" height="22" as="geometry" />
        </mxCell>
        <mxCell id="KkQzS-VH_zntUxfcrALL-24" value="sparse&lt;br style=&quot;font-size: 10px;&quot;&gt;vector" style="rounded=1;whiteSpace=wrap;html=1;fillColor=#e1d5e7;strokeColor=#9673a6;fontSize=10;" vertex="1" parent="1">
          <mxGeometry x="350" y="318" width="33" height="22" as="geometry" />
        </mxCell>
        <mxCell id="KkQzS-VH_zntUxfcrALL-25" value="sparse&lt;br style=&quot;font-size: 10px;&quot;&gt;vector" style="rounded=1;whiteSpace=wrap;html=1;fillColor=#e1d5e7;strokeColor=#9673a6;fontSize=10;" vertex="1" parent="1">
          <mxGeometry x="296" y="318" width="33" height="22" as="geometry" />
        </mxCell>
        <mxCell id="KkQzS-VH_zntUxfcrALL-26" value="sparse&lt;br style=&quot;font-size: 10px;&quot;&gt;vector" style="rounded=1;whiteSpace=wrap;html=1;fillColor=#e1d5e7;strokeColor=#9673a6;fontSize=10;" vertex="1" parent="1">
          <mxGeometry x="218.5" y="318" width="33" height="22" as="geometry" />
        </mxCell>
        <mxCell id="KkQzS-VH_zntUxfcrALL-36" style="edgeStyle=orthogonalEdgeStyle;rounded=0;orthogonalLoop=1;jettySize=auto;html=1;exitX=0.375;exitY=1;exitDx=0;exitDy=0;" edge="1" parent="1" source="KkQzS-VH_zntUxfcrALL-28" target="KkQzS-VH_zntUxfcrALL-33">
          <mxGeometry relative="1" as="geometry" />
        </mxCell>
        <mxCell id="KkQzS-VH_zntUxfcrALL-28" value="cluster 1" style="shape=hexagon;perimeter=hexagonPerimeter2;whiteSpace=wrap;html=1;fixedSize=1;fontSize=10;fontStyle=2" vertex="1" parent="1">
          <mxGeometry x="275" y="365" width="60" height="40" as="geometry" />
        </mxCell>
        <mxCell id="KkQzS-VH_zntUxfcrALL-38" style="edgeStyle=orthogonalEdgeStyle;rounded=0;orthogonalLoop=1;jettySize=auto;html=1;exitX=0.375;exitY=1;exitDx=0;exitDy=0;" edge="1" parent="1" source="KkQzS-VH_zntUxfcrALL-30" target="KkQzS-VH_zntUxfcrALL-35">
          <mxGeometry relative="1" as="geometry" />
        </mxCell>
        <mxCell id="KkQzS-VH_zntUxfcrALL-30" value="cluster n" style="shape=hexagon;perimeter=hexagonPerimeter2;whiteSpace=wrap;html=1;fixedSize=1;fontSize=10;fontStyle=2" vertex="1" parent="1">
          <mxGeometry x="392.5" y="365" width="60" height="40" as="geometry" />
        </mxCell>
        <mxCell id="KkQzS-VH_zntUxfcrALL-33" value="ch 1, ch 3, ..." style="text;html=1;align=center;verticalAlign=middle;resizable=0;points=[];autosize=1;strokeColor=none;fillColor=none;fontSize=9;" vertex="1" parent="1">
          <mxGeometry x="280" y="430" width="80" height="20" as="geometry" />
        </mxCell>
        <mxCell id="KkQzS-VH_zntUxfcrALL-35" value="ch 2, ch 7, ..." style="text;html=1;align=center;verticalAlign=middle;resizable=0;points=[];autosize=1;strokeColor=none;fillColor=none;fontSize=9;" vertex="1" parent="1">
          <mxGeometry x="407.5" y="430" width="80" height="20" as="geometry" />
        </mxCell>
        <mxCell id="KkQzS-VH_zntUxfcrALL-39" value="...." style="text;html=1;align=center;verticalAlign=middle;resizable=0;points=[];autosize=1;strokeColor=none;fillColor=none;fontStyle=1" vertex="1" parent="1">
          <mxGeometry x="346.5" y="375" width="40" height="30" as="geometry" />
        </mxCell>
        <mxCell id="KkQzS-VH_zntUxfcrALL-40" value="centroid&lt;br style=&quot;font-size: 10px;&quot;&gt;vector" style="rounded=1;whiteSpace=wrap;html=1;fillColor=#fff2cc;strokeColor=#d6b656;fontSize=10;" vertex="1" parent="1">
          <mxGeometry x="399.5" y="450" width="33" height="22" as="geometry" />
        </mxCell>
        <mxCell id="KkQzS-VH_zntUxfcrALL-41" value="centroid&lt;br style=&quot;font-size: 10px;&quot;&gt;vector" style="rounded=1;whiteSpace=wrap;html=1;fillColor=#e1d5e7;strokeColor=#9673a6;fontSize=10;" vertex="1" parent="1">
          <mxGeometry x="438.5" y="450" width="33" height="22" as="geometry" />
        </mxCell>
        <mxCell id="KkQzS-VH_zntUxfcrALL-45" style="edgeStyle=orthogonalEdgeStyle;rounded=0;orthogonalLoop=1;jettySize=auto;html=1;exitX=0.5;exitY=1;exitDx=0;exitDy=0;entryX=1;entryY=0;entryDx=0;entryDy=37.5;entryPerimeter=0;" edge="1" parent="1" source="KkQzS-VH_zntUxfcrALL-44" target="dMzlSlOISvEDsEY7bGCE-3">
          <mxGeometry relative="1" as="geometry">
            <mxPoint x="230" y="688" as="targetPoint" />
            <Array as="points">
              <mxPoint x="325" y="520" />
              <mxPoint x="340" y="520" />
              <mxPoint x="340" y="688" />
            </Array>
          </mxGeometry>
        </mxCell>
        <mxCell id="KkQzS-VH_zntUxfcrALL-46" style="edgeStyle=orthogonalEdgeStyle;rounded=0;orthogonalLoop=1;jettySize=auto;html=1;exitX=0.5;exitY=1;exitDx=0;exitDy=0;entryX=0.145;entryY=0;entryDx=0;entryDy=4.35;entryPerimeter=0;" edge="1" parent="1" source="KkQzS-VH_zntUxfcrALL-42" target="dMzlSlOISvEDsEY7bGCE-2">
          <mxGeometry relative="1" as="geometry" />
        </mxCell>
        <mxCell id="KkQzS-VH_zntUxfcrALL-47" style="edgeStyle=orthogonalEdgeStyle;rounded=0;orthogonalLoop=1;jettySize=auto;html=1;exitX=1;exitY=0.75;exitDx=0;exitDy=0;entryX=1;entryY=0;entryDx=0;entryDy=37.5;entryPerimeter=0;" edge="1" parent="1" source="KkQzS-VH_zntUxfcrALL-43" target="dMzlSlOISvEDsEY7bGCE-5">
          <mxGeometry relative="1" as="geometry">
            <Array as="points">
              <mxPoint x="390" y="320" />
              <mxPoint x="390" y="768" />
            </Array>
          </mxGeometry>
        </mxCell>
      </root>
    </mxGraphModel>
  </diagram>
</mxfile>
